# xmcd
# 
# Track frame offsets:
#     150
#     23175
#     61575
# 
# Disc length: 1076
# 
# Revision: 0
# Processed by: cddbd v1.5.2PL0 Copyright (c) Steve Scherf et al.
# Submitted via: fre:ac v1.0.17
# 
DISCID=19043203
DTITLE=Various Artist - Histoires pour les petits - fevrier 2014
DYEAR=2014
DGENRE=Vocal
TTITLE0=Charles Perrault - Camille Laurans (adapt.) - Natacha Fabry (Lect.) - Le Chat Botte
TTITLE1=Valerie Cros - Franck Aupeix (Lect.) - Petit-Gaulois veut des moustaches
TTITLE2=Pascal Brissy - Jean-Paul Bibe (Lect.) - Le Camelion
EXTD=
EXTT0=
EXTT1=
EXTT2=
PLAYORDER=
